{"accessors":[{"bufferView":0,"byteOffset":0,"componentType":5126,"count":507,"max":[0.108,0.108,0.108],"min":[-0.108,-0.108,-0.108],"type":"VEC3"},{"bufferView":1,"byteOffset":0,"componentType":5126,"count":507,"type":"VEC3"},{"bufferView":2,"byteOffset":0,"componentType":5123,"count":2934,"type":"SCALAR"}],"asset":{"generator":"Open CASCADE Technology 7.8 [dev.opencascade.org]","version":"2.0"},"bufferViews":[{"buffer":0,"byteLength":6084,"byteOffset":0,"byteStride":12,"target":34962},{"buffer":0,"byteLength":6084,"byteOffset":6084,"byteStride":12,"target":34962},{"buffer":0,"byteLength":5868,"byteOffset":12168,"target":34963}],"buffers":[{"byteLength":18036,"uri":"BowlingBall-Sphere.bin"}],"materials":[{"name":"mat_0","pbrMetallicRoughness":{"baseColorFactor":[0.052860651165246964,0.3277781307697296,0.045186202973127365,1.0]},"doubleSided":true}],"meshes":[{"name":"Sphere","primitives":[{"attributes":{"NORMAL":1,"POSITION":0},"indices":2,"material":0,"mode":4}]}],"nodes":[{"mesh":0,"name":"Sphere"}],"scene":0,"scenes":[{"nodes":[0]}]}